<mxfile host="Electron" modified="2024-06-09T22:11:11.539Z" agent="Mozilla/5.0 (Windows NT 10.0; Win64; x64) AppleWebKit/537.36 (KHTML, like Gecko) draw.io/24.5.1 Chrome/124.0.6367.207 Electron/30.0.6 Safari/537.36" etag="zb0jmoOTUs_MPv2zVbRZ" version="24.5.1" type="device">
  <diagram name="第 1 页" id="ewl9boTtj5eG1xmZE2dz">
    <mxGraphModel dx="73" dy="53" grid="1" gridSize="3.937" guides="1" tooltips="1" connect="1" arrows="1" fold="1" page="1" pageScale="1" pageWidth="48" pageHeight="48" background="#464647" math="0" shadow="0">
      <root>
        <mxCell id="0" />
        <mxCell id="1" parent="0" />
        <mxCell id="rnx2ZesQ3LvqRwgHEvtc-6" value="" style="endArrow=none;html=1;rounded=0;strokeWidth=2;strokeColor=#E6E6E6;entryX=1;entryY=0.512;entryDx=0;entryDy=0;entryPerimeter=0;" edge="1" parent="1" target="rnx2ZesQ3LvqRwgHEvtc-11">
          <mxGeometry width="50" height="50" relative="1" as="geometry">
            <mxPoint x="39.37" y="39" as="sourcePoint" />
            <mxPoint x="39" y="24" as="targetPoint" />
          </mxGeometry>
        </mxCell>
        <mxCell id="rnx2ZesQ3LvqRwgHEvtc-11" value="" style="verticalLabelPosition=bottom;verticalAlign=top;html=1;shape=mxgraph.basic.arc;startAngle=0;endAngle=0.25492074927787245;fillColor=none;strokeColor=#E6E6E6;strokeWidth=2;" vertex="1" parent="1">
          <mxGeometry x="7.87" y="7.87" width="31.49" height="31.5" as="geometry" />
        </mxCell>
        <mxCell id="rnx2ZesQ3LvqRwgHEvtc-13" value="" style="endArrow=none;html=1;rounded=0;entryX=0.502;entryY=0.002;entryDx=0;entryDy=0;entryPerimeter=0;strokeWidth=2;strokeColor=#E6E6E6;" edge="1" parent="1" target="rnx2ZesQ3LvqRwgHEvtc-11">
          <mxGeometry width="50" height="50" relative="1" as="geometry">
            <mxPoint x="8" y="8" as="sourcePoint" />
            <mxPoint x="38" y="4" as="targetPoint" />
          </mxGeometry>
        </mxCell>
      </root>
    </mxGraphModel>
  </diagram>
</mxfile>
